<?xml version="1.0" encoding="UTF-8"?><svg id="Layer_2" xmlns="http://www.w3.org/2000/svg" xmlns:xlink="http://www.w3.org/1999/xlink" viewBox="0 0 521.07 82.37"><defs><style>.cls-1{fill:url(#Green_Gradient-2);}.cls-1,.cls-2,.cls-3{stroke-width:0px;}.cls-2{fill:url(#Green_Gradient);}.cls-3{fill:#fff;}</style><linearGradient id="Green_Gradient" x1="61.19" y1="-1.38" x2="21.59" y2="84.43" gradientUnits="userSpaceOnUse"><stop offset="0" stop-color="#b1cf52"/><stop offset=".51" stop-color="#3c9c50"/><stop offset="1" stop-color="#058744"/></linearGradient><linearGradient id="Green_Gradient-2" x1="59.88" y1="-1.98" x2="20.28" y2="83.82" xlink:href="#Green_Gradient"/></defs><g id="Layer_1-2"><path class="cls-2" d="m28.62,15.43c-1.05.64-1.38,2.01-.74,3.06l11.34,19.33-11.11,18.07c-.62,1.06-.25,2.43.81,3.04,1.06.62,2.43.25,3.04-.81l11.05-17.96,22.86-.22c.59.02,1.16-.2,1.59-.61.43-.41.68-.96.7-1.56.02-.59-.2-1.16-.61-1.59-.41-.43-.96-.68-1.56-.7l-22.85.22-11.46-19.53c-.64-1.04-2.01-1.38-3.06-.74Z"/><path class="cls-1" d="m83.27,34.85L64.54,2.24c-.77-1.34-2.2-2.17-3.74-2.17L23.2,0c-1.54,0-2.98.82-3.75,2.15L.58,34.68c-.77,1.33-.78,2.99,0,4.32l18.74,32.6c.38.66.92,1.21,1.58,1.59.66.38,1.4.58,2.16.58l37.6.08c1.54,0,2.98-.82,3.75-2.15l18.87-32.53c.77-1.33.78-2.99,0-4.32Zm-8.74,2.14l-16.36,28.21-32.61-.07-16.25-28.27L25.67,8.65l32.61.06,16.25,28.27Z"/><path class="cls-3" d="m236.18,45.72c0-3.91-.71-7.28-2.12-10.11-1.42-2.83-3.41-5.02-5.98-6.56-2.57-1.54-5.66-2.31-9.26-2.31s-6.91.84-9.76,2.51c-2.86,1.67-5.09,3.97-6.71,6.91-1.62,2.93-2.43,6.35-2.43,10.26s.84,7.49,2.51,10.42c1.67,2.93,4.05,5.2,7.14,6.79,3.09,1.59,6.76,2.39,11.04,2.39,2.73,0,5.45-.44,8.18-1.31,2.73-.87,5.57-2.43,7.37-3.92l-3.28-6.11c-1.75,1.39-3.68,2.4-5.79,3.05-2.11.64-4.22.96-6.33.96-2.57,0-4.73-.46-6.48-1.39-1.75-.93-3.06-2.31-3.94-4.17-.6-1.28-.98-2.81-1.17-4.55h24.17c1.58,0,2.86-1.28,2.86-2.86h0Zm-22.49-10.92c1.52-1,3.36-1.5,5.52-1.5,2.88,0,5.09.94,6.64,2.82,1.36,1.66,2.09,3.99,2.25,6.91h-18.9c.18-1.46.51-2.8,1.03-3.97.8-1.83,1.95-3.24,3.47-4.24Z"/><path class="cls-3" d="m414.35,43.28c-1.03-1.94-2.52-3.53-4.47-4.77-1.34-.85-2.88-1.49-4.59-1.93,2.44-.9,4.45-2.25,6.01-4.05,2.06-2.37,3.09-5.28,3.09-8.74,0-4.64-1.7-8.26-5.09-10.88-3.4-2.62-8.18-3.92-14.36-3.92h-19.78c-3.28,0-5.94,2.69-5.94,6.02v51.02h26.63c4.17,0,7.76-.62,10.77-1.86,3.01-1.24,5.3-3.06,6.89-5.46,1.59-2.4,2.38-5.27,2.38-8.62,0-2.59-.52-4.85-1.54-6.8Zm-34.85-26.46h13.61c3.67,0,6.41.69,8.22,2.06,1.81,1.38,2.71,3.41,2.71,6.11s-.91,4.73-2.71,6.11c-1.81,1.38-4.55,2.06-8.22,2.06h-13.61v-16.34Zm25.63,35.84c-.28.92-.71,1.73-1.29,2.43-.58.7-1.31,1.28-2.17,1.74-.86.46-1.89.8-3.09,1.01-1.2.22-2.55.32-4.05.32h-15.03v-17.15h15.03c1.5,0,2.85.11,4.05.32,1.2.22,2.23.55,3.09,1.01.86.46,1.59,1.03,2.17,1.7.58.67,1.01,1.47,1.29,2.39.28.92.42,1.97.42,3.16s-.14,2.16-.42,3.07Z"/><path class="cls-3" d="m434.12,66.02c-4.54,0-7.89-1.24-10.06-3.72-2.16-2.48-3.25-6.12-3.25-10.92V10.07s9.78,0,9.78,0v40.85c0,1.51.22,2.8.66,3.87.44,1.07,1.11,1.87,2,2.39.89.52,1.98.78,3.29.78.57,0,1.15-.03,1.72-.08.57-.05,1.12-.16,1.64-.31l3.42,6.43c-1.5.95-4.88,1.88-6.5,1.95-.92.04-1.72.07-2.71.07Z"/><path class="cls-3" d="m463.46,66.02c-3.9,0-7.29-.8-10.17-2.39-2.88-1.59-5.11-3.86-6.7-6.82-1.59-2.95-2.39-6.43-2.39-10.43s.8-7.47,2.39-10.4c1.59-2.93,3.82-5.18,6.7-6.78,2.88-1.59,6.26-2.39,10.17-2.39s7.29.8,10.17,2.39c2.87,1.59,5.11,3.85,6.7,6.78,1.59,2.93,2.39,6.39,2.39,10.4s-.8,7.48-2.39,10.43c-1.59,2.95-3.82,5.22-6.7,6.82-2.88,1.59-6.26,2.39-10.17,2.39Zm0-7.32c2.87,0,5.18-1.04,6.93-3.12,1.74-2.08,2.62-5.15,2.62-9.2s-.87-7.17-2.62-9.2c-1.75-2.03-4.06-3.04-6.93-3.04s-5.19,1.01-6.93,3.04c-1.75,2.03-2.62,5.1-2.62,9.2s.87,7.12,2.62,9.2c1.74,2.08,4.06,3.12,6.93,3.12Z"/><path class="cls-3" d="m153.34,66.02c-.18-.35-9.99-20.3-17.84-36.18l-8.49-17.19c-2.41-4.89-9.04-4.89-11.46,0l-26.38,53.37h10.91l6.42-13.56h29.55l6.75,13.56h10.53Zm-42.2-22.94l10.15-20.54,10.14,20.54h-20.29Z"/><path class="cls-3" d="m351.33,27.82h10.98v35.42c0,4.22-.75,7.75-2.24,10.61-1.49,2.86-3.7,4.99-6.64,6.4-2.94,1.41-6.53,2.13-10.8,2.13-3.64,0-7.04-.41-10.21-1.24-3.18-.83-6.66-2.46-9.06-4.17l3.58-6.6c1.49.95,3.07,1.78,4.72,2.45,1.65.67,3.33,1.16,5.05,1.48,1.7.32,3.41.48,5.11.48,3.57,0,6.26-.86,8.05-2.6,1.78-1.73,2.68-4.3,2.68-7.72,0,0,0-4.62,0-4.64-.41.67-.76,1.34-1.29,1.93-1.22,1.34-2.75,2.4-4.45,3.03s-3.37.84-5.1.99c-.45.04-.91.07-1.37.1-3.52.23-7.25.15-10.43-1.58-2.1-1.14-3.65-2.86-4.67-5.13-1.02-2.29-1.52-5.11-1.52-8.51v-22.81h9.8v7.55c0,3.12,0,6.24,0,9.36,0,2.87-.24,6.01.64,8.79.54,1.71,1.78,2.87,3.5,3.34,2.29.64,4.82.81,7.13.16,5.47-1.55,6.23-7.63,6.39-12.46.04-1.31.04-2.62.05-3.93.03-4.27.06-8.55.1-12.82Z"/><path class="cls-3" d="m192.41,26.77h-3.68c-.72,0-1.41.3-1.88.84-1.77,2.03-4.66,2.4-6.83,1.09,0,0-.02-.02-.03-.02-.89-.36-1.71-.79-2.35-1.01-1.27-.48-2.6-.75-3.95-.84-4.28-.3-7.94.49-10.99,2.39-2.63,1.63-4.66,3.92-6.12,6.83-1.44,2.93-2.17,6.36-2.17,10.27s.73,7.34,2.17,10.29c1.46,2.97,3.49,5.25,6.12,6.9,2.63,1.63,5.72,2.44,9.26,2.44,3.22,0,6.1-.81,8.66-2.44,1.93-1.25,3.38-2.82,4.3-4.71v5.39c0,3.42-.89,6.03-2.7,7.77-1.79,1.74-4.49,2.62-8.09,2.62-1.71,0-3.42-.17-5.15-.49-1.71-.32-3.41-.82-5.07-1.49-1.66-.67-3.23-1.49-4.74-2.46l-3.49,6.6c2.41,1.71,5.8,3.41,9.01,4.23,3.19.84,6.61,1.25,10.26,1.25,4.3,0,7.91-.71,10.86-2.14,2.95-1.41,5.18-3.57,6.69-6.44,1.49-2.87,2.25-6.42,2.25-10.66V29.12c0-1.29-1.05-2.34-2.34-2.34Zm-10.91,28.33c-1.97,2.14-4.65,3.22-8.01,3.22s-6.04-1.08-8.01-3.22c-1.97-2.14-2.95-5.07-2.95-8.77s.98-6.61,2.95-8.74c1.97-2.12,4.65-3.19,8.01-3.19s6.04,1.06,8.01,3.19c1.97,2.12,2.96,5.03,2.96,8.74s-1,6.63-2.96,8.77Z"/><path class="cls-3" d="m303.26,66.02c-3.96,0-7.4-.81-10.33-2.43-2.93-1.62-5.19-3.92-6.78-6.9-1.59-2.98-2.39-6.48-2.39-10.49s.8-7.47,2.39-10.37c1.59-2.9,3.86-5.14,6.78-6.71,2.93-1.57,6.37-2.35,10.33-2.35,2.42,0,4.8.39,7.17,1.16,2.36.77,5.46,2.35,7,3.73l-3.5,6.48c-1.34-1.18-3.33-2.34-5-2.96-1.67-.62-3.28-.93-4.82-.93-3.34,0-5.92,1.04-7.75,3.12-1.83,2.08-2.74,5.05-2.74,8.91s.91,6.8,2.74,8.98c1.82,2.18,4.41,3.28,7.75,3.28,1.49,0,3.08-.31,4.78-.93,1.7-.62,3.88-1.96,5.22-3.19l3.34,6.15c-1.54,1.34-4.66,3.46-7.05,4.26-2.39.8-4.77,1.2-7.13,1.2Z"/><path class="cls-3" d="m506.89,66.02c-3.96,0-7.4-.81-10.33-2.43-2.93-1.62-5.19-3.92-6.78-6.9-1.59-2.98-2.39-6.48-2.39-10.49s.8-7.47,2.39-10.37c1.59-2.9,3.86-5.14,6.78-6.71,2.93-1.57,6.37-2.35,10.33-2.35,2.42,0,4.8.39,7.17,1.16,2.36.77,5.46,2.35,7,3.73l-3.5,6.48c-1.34-1.18-3.33-2.34-5-2.96-1.67-.62-3.28-.93-4.82-.93-3.34,0-5.92,1.04-7.75,3.12-1.83,2.08-2.74,5.05-2.74,8.91s.91,6.8,2.74,8.98c1.82,2.18,4.41,3.28,7.75,3.28,1.49,0,3.08-.31,4.78-.93,1.7-.62,3.88-1.96,5.22-3.19l3.34,6.15c-1.54,1.34-4.66,3.46-7.05,4.26-2.39.8-4.77,1.2-7.13,1.2Z"/><path class="cls-3" d="m278.9,42.49v23.53h-9.91v-18.39c0-2.46.33-5.01-.22-7.42-.76-3.25-3.31-5.2-6.6-5.49-1.09-.1-2.25-.02-3.35.29-1.66.4-3.19,1.24-4.23,2.55-1.49,1.89-2.09,4.39-2.09,6.75v21.71h-9.91s0-3.09-.02-3.09V28.52c.02-1.09.71-1.74,1.71-1.74,0,0,2.59.01,4.76,0,1.5,0,2.43,1.46,3.77,1.96,2.57.95,4.51-.31,6.87-1.14.27-.1.54-.19.82-.27.11-.05.24-.08.36-.1.24-.08.49-.14.78-.19,1.16-.27,2.35-.43,3.54-.43,3.12,0,5.68.59,7.69,1.74,2.01,1.16,3.52,2.9,4.52,5.25,1.01,2.35,1.51,5.3,1.51,8.88Z"/></g></svg>